<svg width="20" height="18" viewBox="0 0 20 18" fill="none" xmlns="http://www.w3.org/2000/svg">
<path d="M19.25 6.14969C16.94 2.51969 13.56 0.429688 10 0.429688C8.22 0.429688 6.49 0.949687 4.91 1.91969C3.33 2.89969 1.91 4.32969 0.75 6.14969C-0.25 7.71969 -0.25 10.2697 0.75 11.8397C3.06 15.4797 6.44 17.5597 10 17.5597C11.78 17.5597 13.51 17.0397 15.09 16.0697C16.67 15.0897 18.09 13.6597 19.25 11.8397C20.25 10.2797 20.25 7.71969 19.25 6.14969ZM10 13.0397C7.76 13.0397 5.96 11.2297 5.96 8.99969C5.96 6.76969 7.76 4.95969 10 4.95969C12.24 4.95969 14.04 6.76969 14.04 8.99969C14.04 11.2297 12.24 13.0397 10 13.0397Z" fill="#BFBFBF"/>
<path d="M9.9999 6.13965C8.4299 6.13965 7.1499 7.41965 7.1499 8.99965C7.1499 10.5696 8.4299 11.8496 9.9999 11.8496C11.5699 11.8496 12.8599 10.5696 12.8599 8.99965C12.8599 7.42965 11.5699 6.13965 9.9999 6.13965Z" fill="#404040"/>
</svg>
